<?xml version="1.0" standalone="no"?>
<!DOCTYPE svg PUBLIC "-//W3C//DTD SVG 20010904//EN"
 "http://www.w3.org/TR/2001/REC-SVG-20010904/DTD/svg10.dtd">
<svg version="1.0" xmlns="http://www.w3.org/2000/svg"
 width="500.000000pt" height="500.000000pt" viewBox="0 0 500.000000 500.000000"
 preserveAspectRatio="xMidYMid meet">
<metadata>
Created by potrace 1.16, written by Peter Selinger 2001-2019
</metadata>
<g transform="translate(0.000000,500.000000) scale(0.100000,-0.100000)"
fill="#000000" stroke="none">
<path d="M1658 3897 l-378 -232 0 -647 0 -648 374 0 374 0 6 28 c4 20 6 1734
2 1732 -1 -1 -171 -105 -378 -233z"/>
<path d="M1287 2083 c28 -418 252 -775 618 -986 221 -128 511 -182 774 -143
323 48 582 199 789 460 143 179 234 414 249 639 l6 97 -341 0 -342 0 -4 -22
c-3 -13 -8 -43 -11 -68 -17 -128 -131 -272 -265 -338 -75 -37 -75 -37 -205
-37 -121 0 -134 2 -188 27 -131 62 -227 168 -267 297 -11 35 -20 81 -20 102
l0 39 -399 0 -399 0 5 -67z"/>
</g>
</svg>
