<?xml version="1.0" standalone="no"?>
<!DOCTYPE svg PUBLIC "-//W3C//DTD SVG 20010904//EN"
 "http://www.w3.org/TR/2001/REC-SVG-20010904/DTD/svg10.dtd">
<svg version="1.0" xmlns="http://www.w3.org/2000/svg"
 width="500.000000pt" height="500.000000pt" viewBox="0 0 500.000000 500.000000"
 preserveAspectRatio="xMidYMid meet">
<metadata>
Created by potrace 1.16, written by Peter Selinger 2001-2019
</metadata>
<g transform="translate(0.000000,500.000000) scale(0.100000,-0.100000)"
fill="#000000" stroke="none">
<path d="M1115 2985 c-27 -26 -34 -80 -14 -116 16 -30 66 -48 103 -38 103 29
81 179 -26 179 -28 0 -46 -7 -63 -25z"/>
<path d="M3609 2981 c-37 -37 -38 -79 -3 -120 54 -65 154 -28 154 57 0 85 -91
122 -151 63z"/>
<path d="M390 2810 l0 -90 -35 0 -35 0 0 -60 0 -60 34 0 34 0 4 -122 c4 -100
8 -131 26 -164 25 -49 71 -74 135 -74 34 0 98 14 114 24 1 1 -6 29 -16 61 -18
57 -20 60 -49 57 -43 -4 -52 19 -52 127 l0 91 50 0 50 0 0 60 0 60 -50 0 -50
0 0 90 0 90 -80 0 -80 0 0 -90z"/>
<path d="M3856 2892 c-3 -3 -6 -43 -6 -89 l0 -83 -35 0 -35 0 0 -60 0 -60 34
0 34 0 4 -122 c3 -94 8 -132 22 -161 32 -66 115 -92 209 -66 42 11 43 14 20
85 -15 48 -19 53 -40 48 -44 -11 -53 9 -53 117 l0 99 50 0 50 0 0 60 0 60 -50
0 -50 0 0 90 0 90 -74 -1 c-41 -1 -77 -4 -80 -7z"/>
<path d="M903 2704 c-24 -14 -43 -29 -43 -35 0 -5 -4 -9 -10 -9 -5 0 -10 14
-10 30 l0 30 -80 0 -80 0 0 -235 0 -235 80 0 80 0 0 134 c0 122 2 136 23 167
30 44 74 57 126 37 l39 -16 30 68 30 68 -25 11 c-43 20 -114 13 -160 -15z"/>
<path d="M4271 2713 c-59 -21 -136 -97 -150 -148 -27 -98 -8 -179 57 -244 122
-121 354 -104 450 34 33 47 46 126 31 187 -14 60 -71 128 -134 161 -54 28
-191 34 -254 10z m189 -140 c57 -51 51 -145 -12 -183 -83 -50 -174 3 -172 100
3 97 113 146 184 83z"/>
<path d="M1100 2485 l0 -236 78 3 77 3 5 226 5 226 122 -226 121 -226 54 -3
54 -3 122 229 c67 126 122 232 122 236 0 4 -41 5 -92 4 l-91 -3 -55 -122 c-30
-68 -58 -121 -62 -118 -4 2 -31 58 -60 125 l-53 120 -173 0 -174 0 0 -235z"/>
<path d="M3020 2580 c0 -173 12 -234 55 -277 89 -89 340 -82 413 12 31 39 42
111 42 265 l0 140 -80 0 -80 0 0 -140 c0 -162 -10 -194 -63 -208 -17 -5 -45
-5 -62 0 -57 15 -60 25 -63 193 l-3 155 -80 0 -79 0 0 -140z"/>
<path d="M3590 2485 l0 -235 80 0 80 0 0 235 0 235 -80 0 -80 0 0 -235z"/>
</g>
</svg>
